HIERARCHY
ROOT Hips
{
	OFFSET 0.000000 0.000000 0.000000
	CHANNELS 6 Xposition Yposition Zposition Xrotation Yrotation Zrotation
	JOINT LeftUpLeg_virtual
	{
		OFFSET 0.000000 0.000000 0.000000
		CHANNELS 3 Xrotation Yrotation Zrotation
		JOINT LeftUpLeg
		{
			OFFSET 11.394100 -6.187798 -0.413800
			CHANNELS 3 Xrotation Yrotation Zrotation
			JOINT LeftLeg
			{
				OFFSET 0.430247 -32.302673 3.732800
				CHANNELS 3 Xrotation Yrotation Zrotation
				JOINT LeftFoot
				{
					OFFSET -0.430247 -48.264931 -6.423300
					CHANNELS 3 Xrotation Yrotation Zrotation
					JOINT LeftToeBase
					{
						OFFSET 4.230900 -16.068199 23.438400
						CHANNELS 3 Xrotation Yrotation Zrotation
						JOINT LeftToe_End
						{
							OFFSET 4.510700 0.695400 19.974600
							CHANNELS 3 Xrotation Yrotation Zrotation
							End Site
							{
								OFFSET 0 0 0
							}
						}
					}
				}
			}
		}
	}
	JOINT RightUpLeg_virtual
	{
		OFFSET 0.000000 0.000000 0.000000
		CHANNELS 3 Xrotation Yrotation Zrotation
		JOINT RightUpLeg
		{
			OFFSET -11.333700 -6.187798 -0.413800
			CHANNELS 3 Xrotation Yrotation Zrotation
			JOINT RightLeg
			{
				OFFSET -0.430392 -32.302628 3.733000
				CHANNELS 3 Xrotation Yrotation Zrotation
				JOINT RightFoot
				{
					OFFSET 0.430392 -48.264973 -6.423500
					CHANNELS 3 Xrotation Yrotation Zrotation
					JOINT RightToeBase
					{
						OFFSET -4.230900 -16.068199 23.438400
						CHANNELS 3 Xrotation Yrotation Zrotation
						JOINT RightToe_End
						{
							OFFSET -4.510700 0.695400 19.974600
							CHANNELS 3 Xrotation Yrotation Zrotation
							End Site
							{
								OFFSET 0 0 0
							}
						}
					}
				}
			}
		}
	}
	JOINT Spine_virtual
	{
		OFFSET 0.000000 0.000000 0.000000
		CHANNELS 3 Xrotation Yrotation Zrotation
		JOINT Spine
		{
			OFFSET -0.002400 12.777504 0.315300
			CHANNELS 3 Xrotation Yrotation Zrotation
			JOINT Spine1
			{
				OFFSET -0.002067 5.816869 0.032633
				CHANNELS 3 Xrotation Yrotation Zrotation
				JOINT Spine1_split
				{
					OFFSET -0.002067 5.816869 0.032633
					CHANNELS 3 Xrotation Yrotation Zrotation
					JOINT Spine2
					{
						OFFSET -0.002067 5.816869 0.032633
						CHANNELS 3 Xrotation Yrotation Zrotation
						JOINT Neck_virtual
						{
							OFFSET 0.000000 0.000000 0.000000
							CHANNELS 3 Xrotation Yrotation Zrotation
							JOINT Neck
							{
								OFFSET -0.003700 21.199493 -0.826900
								CHANNELS 3 Xrotation Yrotation Zrotation
								JOINT Head
								{
									OFFSET 0.000000 20.442200 4.834800
									CHANNELS 3 Xrotation Yrotation Zrotation
									JOINT HeadTop_End
									{
										OFFSET 0.000000 34.668396 4.968400
										CHANNELS 3 Xrotation Yrotation Zrotation
										End Site
										{
											OFFSET 0 0 0
										}
									}
								}
							}
						}
						JOINT LeftShoulder_virtual
						{
							OFFSET 0.000000 0.000000 0.000000
							CHANNELS 3 Xrotation Yrotation Zrotation
							JOINT LeftShoulder
							{
								OFFSET 3.288150 8.794197 -1.372250
								CHANNELS 3 Xrotation Yrotation Zrotation
								JOINT LeftShoulder_split
								{
									OFFSET 3.288150 8.794197 -1.372250
									CHANNELS 3 Xrotation Yrotation Zrotation
									JOINT LeftArm
									{
										OFFSET 11.953299 -2.279007 -0.146200
										CHANNELS 3 Xrotation Yrotation Zrotation
										JOINT LeftForeArm
										{
											OFFSET 18.448900 0.000000 0.000000
											CHANNELS 3 Xrotation Yrotation Zrotation
											JOINT LeftHand
											{
												OFFSET 29.527798 0.000000 0.000000
												CHANNELS 3 Xrotation Yrotation Zrotation
												End Site
												{
													OFFSET 0 0 0
												}
											}
										}
									}
								}
							}
						}
						JOINT RightShoulder_virtual
						{
							OFFSET 0.000000 0.000000 0.000000
							CHANNELS 3 Xrotation Yrotation Zrotation
							JOINT RightShoulder
							{
								OFFSET -3.249400 8.794197 -1.372250
								CHANNELS 3 Xrotation Yrotation Zrotation
								JOINT RightShoulder_split
								{
									OFFSET -3.249400 8.794197 -1.372250
									CHANNELS 3 Xrotation Yrotation Zrotation
									JOINT RightArm
									{
										OFFSET -11.953299 -2.279007 -0.146200
										CHANNELS 3 Xrotation Yrotation Zrotation
										JOINT RightForeArm
										{
											OFFSET -18.448900 0.000000 0.000000
											CHANNELS 3 Xrotation Yrotation Zrotation
											JOINT RightHand
											{
												OFFSET -29.527802 0.000000 0.000000
												CHANNELS 3 Xrotation Yrotation Zrotation
												End Site
												{
													OFFSET 0 0 0
												}
											}
										}
									}
								}
							}
						}
					}
				}
			}
		}
	}
}
MOTION
Frames: 4
Frame Time: 0.03333333
-3.859395 98.342346 -2.982361 0.000000 0.000000 0.000000 -0.901013 -43.470025 3.788392 -23.785190 7.825026 10.109630 15.156265 -5.363132 6.549985 5.808012 -4.313335 -17.551582 -1.789746 1.749872 1.780086 0.000000 0.000000 0.000000 -2.133440 -42.660795 3.881715 -12.754990 -8.623248 -15.509582 19.843923 -11.951113 -10.991658 -2.450258 -4.868084 22.213249 -5.148594 -1.465126 -1.239646 0.000000 0.000000 0.000000 -1.272794 -45.142773 3.353481 7.315548 3.181536 -0.655108 0.212880 2.387504 -1.498951 1.133133 -1.619761 1.046464 0.000000 0.000000 0.000000 -0.662027 2.051934 -1.426499 -17.087480 -1.995055 19.232518 -1.629673 18.237679 -17.021096 0.000000 0.000000 0.000000 -0.228698 1.789242 -1.298428 -7.449778 -7.384776 -13.865674 -5.879677 -2.236343 -3.046906 4.477545 -4.541193 -30.078609 43.857755 -38.803063 17.352661 0.000000 0.000000 0.000000 -0.782842 1.739676 -1.086228 -1.927286 14.160527 -18.948697 -5.446367 3.266990 0.052443 -73.296228 10.914536 18.425876 -76.036097 34.107827 55.848801 0.000000 0.000000 0.000000 
-2.642031 97.742760 -3.100845 0.000000 0.000000 0.000000 -1.193985 -45.700717 3.816490 -24.880912 7.856148 10.506118 17.048792 -4.235959 5.701301 4.614236 -3.686936 -16.609787 -1.226973 1.781299 1.616408 0.000000 0.000000 0.000000 -2.108453 -44.739064 3.969241 -15.096542 -8.097833 -16.324120 20.861208 -10.986903 -11.134170 -2.163895 -4.742022 22.387280 -4.211589 -1.616931 -1.341040 0.000000 0.000000 0.000000 -1.737947 -47.375951 3.148095 7.807301 3.354968 -0.348215 0.925895 2.405234 -1.246767 1.015745 -1.538303 1.158755 0.000000 0.000000 0.000000 -0.098012 2.071015 -1.205554 -17.417870 1.625258 19.205558 0.183155 21.457861 -16.604907 0.000000 0.000000 0.000000 0.475961 1.766004 -1.144470 -7.077078 -6.950903 -13.186061 -6.087052 -2.522603 -3.815864 3.921913 -3.325619 -30.488578 44.085517 -39.954742 18.124131 0.000000 0.000000 0.000000 -0.202919 1.751236 -0.846539 -2.784176 14.473108 -13.043330 -4.653637 3.773466 0.192151 -65.826829 12.618657 19.086267 -78.891410 40.981671 60.777106 0.000000 0.000000 0.000000 
-1.535389 97.051376 -3.222767 0.000000 0.000000 0.000000 -1.376564 -48.058205 3.876631 -26.276895 7.879563 11.105074 19.425435 -3.175889 4.857706 3.481316 -3.141596 -15.809029 -0.627319 1.842009 1.362640 0.000000 0.000000 0.000000 -2.107794 -46.840454 4.046235 -17.621699 -7.560878 -17.088582 22.380621 -9.851886 -11.226503 -1.964949 -4.280831 22.796806 -3.365114 -1.694263 -1.606184 0.000000 0.000000 0.000000 -1.989648 -49.544454 3.060453 8.281950 3.499767 -0.094102 1.684168 2.434760 -1.098937 1.058490 -1.570393 1.168658 0.000000 0.000000 0.000000 0.507457 2.100834 -1.090362 -18.083377 4.998706 18.836362 1.555673 23.758816 -15.899330 0.000000 0.000000 0.000000 1.236807 1.758176 -1.066455 -6.749802 -6.673622 -12.458399 -6.373791 -2.790832 -4.721383 3.244495 -3.112019 -30.699443 43.182874 -40.020968 17.897732 0.000000 0.000000 0.000000 0.461337 1.768099 -0.705350 -3.723505 14.824497 -7.104636 -3.720203 4.536112 0.505000 -57.444794 13.723348 19.214077 -81.713030 48.032954 64.478557 0.000000 0.000000 0.000000 
-0.547277 96.286324 -3.282368 0.000000 0.000000 0.000000 -1.442579 -50.285468 3.938721 -27.959506 7.784152 11.822361 22.110087 -2.295591 4.049019 2.456538 -2.794001 -15.304207 -0.006862 1.915982 1.041185 0.000000 0.000000 0.000000 -2.108058 -48.764952 4.114473 -20.194151 -7.020105 -17.687062 24.237234 -8.649038 -11.285442 -2.067632 -3.643251 23.161679 -2.438510 -1.692628 -1.970101 0.000000 0.000000 0.000000 -2.023687 -51.517381 3.084645 8.715038 3.575915 0.093733 2.430869 2.460486 -1.038393 1.071032 -1.634161 1.141819 0.000000 0.000000 0.000000 1.119945 2.119670 -1.050656 -18.996098 8.129337 18.200509 2.608562 25.297421 -15.049224 0.000000 0.000000 0.000000 1.985118 1.745155 -1.041876 -6.478564 -6.609841 -11.693852 -6.717980 -2.964778 -5.619507 2.399680 -3.647297 -30.697626 41.283654 -39.190908 16.796388 0.000000 0.000000 0.000000 1.167405 1.787844 -0.643303 -4.651167 15.234006 -1.444182 -3.022539 4.872983 0.800100 -48.932773 14.421381 19.097897 -82.947095 54.884238 65.522032 0.000000 0.000000 0.000000 
